<mxfile host="app.diagrams.net" modified="2023-04-19T16:14:12.250Z" agent="Mozilla/5.0 (Macintosh; Intel Mac OS X 10_15_7) AppleWebKit/537.36 (KHTML, like Gecko) Chrome/112.0.0.0 Safari/537.36" etag="4L3HqHFbdpfdTVseyQWF" version="21.2.0" type="device">
  <diagram name="Page-1" id="2YBvvXClWsGukQMizWep">
    <mxGraphModel dx="855" dy="550" grid="1" gridSize="10" guides="1" tooltips="1" connect="1" arrows="1" fold="1" page="1" pageScale="1" pageWidth="850" pageHeight="1100" math="0" shadow="0">
      <root>
        <mxCell id="0" />
        <mxCell id="1" parent="0" />
        <mxCell id="ietrkc2_QNpjG1PC9Mz_-1" value="Client" style="rounded=1;whiteSpace=wrap;html=1;fillColor=#dae8fc;strokeColor=#6c8ebf;fontFamily=Verdana;" vertex="1" parent="1">
          <mxGeometry x="240" y="90" width="120" height="60" as="geometry" />
        </mxCell>
        <mxCell id="ietrkc2_QNpjG1PC9Mz_-2" value="Server" style="rounded=1;whiteSpace=wrap;html=1;fillColor=#d5e8d4;strokeColor=#82b366;fontFamily=Verdana;" vertex="1" parent="1">
          <mxGeometry x="560" y="90" width="120" height="60" as="geometry" />
        </mxCell>
        <mxCell id="ietrkc2_QNpjG1PC9Mz_-4" value="" style="endArrow=none;html=1;rounded=0;entryX=0.5;entryY=1;entryDx=0;entryDy=0;" edge="1" parent="1" source="ietrkc2_QNpjG1PC9Mz_-20" target="ietrkc2_QNpjG1PC9Mz_-1">
          <mxGeometry width="50" height="50" relative="1" as="geometry">
            <mxPoint x="300" y="480" as="sourcePoint" />
            <mxPoint x="470" y="230" as="targetPoint" />
          </mxGeometry>
        </mxCell>
        <mxCell id="ietrkc2_QNpjG1PC9Mz_-5" value="" style="endArrow=none;html=1;rounded=0;entryX=0.5;entryY=1;entryDx=0;entryDy=0;startArrow=baseDash;startFill=0;" edge="1" parent="1" target="ietrkc2_QNpjG1PC9Mz_-2">
          <mxGeometry width="50" height="50" relative="1" as="geometry">
            <mxPoint x="620" y="440" as="sourcePoint" />
            <mxPoint x="619.64" y="160" as="targetPoint" />
          </mxGeometry>
        </mxCell>
        <mxCell id="ietrkc2_QNpjG1PC9Mz_-13" value="" style="rounded=0;whiteSpace=wrap;html=1;fillColor=#d5e8d4;strokeColor=#82b366;" vertex="1" parent="1">
          <mxGeometry x="610.5" y="220" width="19" height="160" as="geometry" />
        </mxCell>
        <mxCell id="ietrkc2_QNpjG1PC9Mz_-8" value="" style="rounded=0;whiteSpace=wrap;html=1;fillColor=#fff2cc;strokeColor=#d6b656;" vertex="1" parent="1">
          <mxGeometry x="610.5" y="220" width="10" height="30" as="geometry" />
        </mxCell>
        <mxCell id="ietrkc2_QNpjG1PC9Mz_-15" value="" style="endArrow=none;html=1;rounded=0;entryX=0.5;entryY=1;entryDx=0;entryDy=0;" edge="1" parent="1" target="ietrkc2_QNpjG1PC9Mz_-14">
          <mxGeometry width="50" height="50" relative="1" as="geometry">
            <mxPoint x="300" y="330" as="sourcePoint" />
            <mxPoint x="300" y="150" as="targetPoint" />
          </mxGeometry>
        </mxCell>
        <mxCell id="ietrkc2_QNpjG1PC9Mz_-19" value="Indication ACK" style="endArrow=classic;html=1;rounded=0;spacingLeft=0;exitX=1;exitY=1;exitDx=0;exitDy=0;entryX=0;entryY=1;entryDx=0;entryDy=0;fontFamily=Verdana;fontSize=12;" edge="1" parent="1" source="ietrkc2_QNpjG1PC9Mz_-14" target="ietrkc2_QNpjG1PC9Mz_-25">
          <mxGeometry x="0.0321" width="50" height="50" relative="1" as="geometry">
            <mxPoint x="319.5" y="365" as="sourcePoint" />
            <mxPoint x="610" y="380" as="targetPoint" />
            <mxPoint as="offset" />
          </mxGeometry>
        </mxCell>
        <mxCell id="ietrkc2_QNpjG1PC9Mz_-21" value="" style="endArrow=none;html=1;rounded=0;entryX=0.5;entryY=1;entryDx=0;entryDy=0;startArrow=baseDash;startFill=0;" edge="1" parent="1" target="ietrkc2_QNpjG1PC9Mz_-20">
          <mxGeometry width="50" height="50" relative="1" as="geometry">
            <mxPoint x="300" y="440" as="sourcePoint" />
            <mxPoint x="300" y="150" as="targetPoint" />
          </mxGeometry>
        </mxCell>
        <mxCell id="ietrkc2_QNpjG1PC9Mz_-20" value="" style="rounded=0;whiteSpace=wrap;html=1;fillColor=#dae8fc;strokeColor=#6c8ebf;" vertex="1" parent="1">
          <mxGeometry x="290.5" y="200" width="19" height="130" as="geometry" />
        </mxCell>
        <mxCell id="ietrkc2_QNpjG1PC9Mz_-23" value="" style="rounded=0;whiteSpace=wrap;html=1;fillColor=#fff2cc;strokeColor=#d6b656;" vertex="1" parent="1">
          <mxGeometry x="299.5" y="200" width="10" height="70" as="geometry" />
        </mxCell>
        <mxCell id="ietrkc2_QNpjG1PC9Mz_-9" value="Write ACK&lt;br style=&quot;font-size: 12px;&quot;&gt;" style="endArrow=classic;html=1;rounded=0;exitX=0;exitY=1;exitDx=0;exitDy=0;entryX=1;entryY=1;entryDx=0;entryDy=0;fontFamily=Verdana;fontSize=12;" edge="1" parent="1" source="ietrkc2_QNpjG1PC9Mz_-8" target="ietrkc2_QNpjG1PC9Mz_-23">
          <mxGeometry x="0.0321" width="50" height="50" relative="1" as="geometry">
            <mxPoint x="610" y="250" as="sourcePoint" />
            <mxPoint x="300" y="270" as="targetPoint" />
            <mxPoint as="offset" />
          </mxGeometry>
        </mxCell>
        <mxCell id="ietrkc2_QNpjG1PC9Mz_-14" value="" style="rounded=0;whiteSpace=wrap;html=1;fillColor=#fff2cc;strokeColor=#d6b656;" vertex="1" parent="1">
          <mxGeometry x="299.5" y="330" width="10" height="30" as="geometry" />
        </mxCell>
        <mxCell id="ietrkc2_QNpjG1PC9Mz_-25" value="" style="rounded=0;whiteSpace=wrap;html=1;fillColor=#fff2cc;strokeColor=#d6b656;" vertex="1" parent="1">
          <mxGeometry x="610.5" y="310" width="10" height="70" as="geometry" />
        </mxCell>
        <mxCell id="ietrkc2_QNpjG1PC9Mz_-10" value="Send Indication&lt;br style=&quot;font-size: 12px;&quot;&gt;" style="endArrow=classic;html=1;rounded=0;exitX=0;exitY=0;exitDx=0;exitDy=0;entryX=1;entryY=0;entryDx=0;entryDy=0;fontFamily=Verdana;fontSize=12;" edge="1" parent="1" source="ietrkc2_QNpjG1PC9Mz_-25" target="ietrkc2_QNpjG1PC9Mz_-14">
          <mxGeometry x="-0.0024" width="50" height="50" relative="1" as="geometry">
            <mxPoint x="620" y="310" as="sourcePoint" />
            <mxPoint x="310" y="330" as="targetPoint" />
            <mxPoint as="offset" />
          </mxGeometry>
        </mxCell>
        <mxCell id="ietrkc2_QNpjG1PC9Mz_-6" value="Write request" style="endArrow=classic;html=1;rounded=0;spacingLeft=0;fontFamily=Verdana;fontSize=12;" edge="1" parent="1">
          <mxGeometry x="0.031" width="50" height="50" relative="1" as="geometry">
            <mxPoint x="310" y="200" as="sourcePoint" />
            <mxPoint x="610" y="220" as="targetPoint" />
            <mxPoint as="offset" />
          </mxGeometry>
        </mxCell>
      </root>
    </mxGraphModel>
  </diagram>
</mxfile>
